<?xml version="1.0" encoding="iso-8859-1"?>
<!-- Generator: Adobe Illustrator 19.0.0, SVG Export Plug-In . SVG Version: 6.00 Build 0)  -->
<svg version="1.1" id="Capa_1" xmlns="http://www.w3.org/2000/svg" xmlns:xlink="http://www.w3.org/1999/xlink" x="0px" y="0px"
	 viewBox="0 0 512 512" style="enable-background:new 0 0 512 512;" xml:space="preserve">
<g>
	<g>
		<path d="M510.852,70.263c-2.314-5.61-7.793-9.258-13.857-9.258h-45.999V15.006c0.001-6.064-3.647-11.542-9.257-13.857
			c-5.61-2.344-12.056-1.025-16.348,3.252L365.392,65.4c-2.813,2.813-4.395,6.621-4.395,10.605v53.788L230.394,260.398
			c-5.859,5.859-5.859,15.352,0,21.211c5.859,5.859,15.352,5.859,21.211,0l130.603-130.603h53.788c3.984,0,7.793-1.582,10.605-4.395
			L507.6,86.611C511.892,82.319,513.181,75.874,510.852,70.263z"/>
	</g>
</g>
<g>
	<g>
		<path d="M459.84,174.056c-7.094,4.462-15.266,6.949-23.844,6.949H394.63l-9.65,9.65c13.336,23.802,21.017,51.181,21.017,80.349
			c0,90.98-74.018,164.998-164.998,164.998S76.002,361.983,76.002,271.004s74.018-164.998,164.998-164.998
			c29.169,0,56.547,7.681,80.349,21.017l9.65-9.65V76.006c0-8.578,2.487-16.75,6.949-23.844
			c-30.328-13.477-62.951-21.156-96.948-21.156c-132.332,0-240.997,107.664-240.997,239.997S108.667,512,240.999,512
			s239.997-108.665,239.997-240.997C480.996,237.007,473.317,204.383,459.84,174.056z"/>
	</g>
</g>
<g>
	<g>
		<path d="M362.47,213.165l-61.879,61.879c-2.117,31.216-27.839,55.958-59.591,55.958c-33.137,0-59.999-26.863-59.999-59.999
			c0-31.755,24.743-57.474,55.958-59.591l61.879-61.879c-17.598-8.421-37.06-13.528-57.838-13.528
			c-74.442,0-134.998,60.556-134.998,134.998c0,74.442,60.556,134.998,134.998,134.998c74.442,0,134.998-60.556,134.998-134.998
			C375.998,250.225,370.891,230.763,362.47,213.165z"/>
	</g>
</g>
<g>
</g>
<g>
</g>
<g>
</g>
<g>
</g>
<g>
</g>
<g>
</g>
<g>
</g>
<g>
</g>
<g>
</g>
<g>
</g>
<g>
</g>
<g>
</g>
<g>
</g>
<g>
</g>
<g>
</g>
</svg>
