<svg id="Capa_1" enable-background="new 0 0 512 512" height="512" viewBox="0 0 512 512" width="512" xmlns="http://www.w3.org/2000/svg"><path d="m90 221c-33.084 0-60-26.916-60-60s26.916-60 60-60 60 26.916 60 60-26.916 60-60 60z"/><path d="m300 181c-33.084 0-60-26.916-60-60s26.916-60 60-60 60 26.916 60 60-26.916 60-60 60z"/><path d="m497 161h-60c-8.284 0-15 6.716-15 15s6.716 15 15 15h23.787l-153.787 153.787-39.394-39.394c-5.857-5.857-15.355-5.857-21.213 0l-115.606 115.607h-115.787c-8.284 0-15 6.716-15 15s6.716 15 15 15h122c3.979 0 7.794-1.58 10.606-4.394l109.394-109.393 39.394 39.394c5.857 5.857 15.355 5.857 21.213 0l164.393-164.394v23.787c0 8.284 6.716 15 15 15s15-6.716 15-15v-60c0-8.284-6.716-15-15-15z"/><path d="m349.724 195.978c-14.256 9.485-31.354 15.022-49.724 15.022-18.369 0-35.468-5.536-49.724-15.022-24.272 16.12-40.276 43.7-40.276 75.022v28.361l15.181-15.181c8.499-8.499 19.8-13.18 31.819-13.18s23.32 4.681 31.819 13.179l18.181 18.181 72.87-72.871c-7.062-13.561-17.478-25.096-30.146-33.511z"/><path d="m40.276 235.978c-24.272 16.12-40.276 43.7-40.276 75.022v80h118.36l61.64-61.639v-18.361c0-31.322-16.004-58.902-40.276-75.022-14.256 9.486-31.355 15.022-49.724 15.022s-35.468-5.536-49.724-15.022z"/></svg>