<svg id="Layer_1" enable-background="new 0 0 512 512" height="512" viewBox="0 0 512 512" width="512" xmlns="http://www.w3.org/2000/svg"><path d="m196 92c-8.27 0-15 6.73-15 15s6.73 15 15 15 15-6.73 15-15-6.73-15-15-15z"/><path d="m512 0h-512v30h31v362h210v32.58c-17.46 6.18-30 22.87-30 42.42 0 24.81 20.19 45 45 45s45-20.19 45-45c0-19.55-12.54-36.24-30-42.42v-32.58h210v-362h31zm-305.39 246.39-21.22 21.22-19.39-19.39-19.39 19.39-21.22-21.22 19.39-19.39-19.39-19.39 21.22-21.22 19.39 19.39 19.39-19.39 21.22 21.22-19.39 19.39zm-10.61-94.39c-24.81 0-45-20.19-45-45s20.19-45 45-45 45 20.19 45 45-20.19 45-45 45zm220.61 154.39-21.22 21.22-19.39-19.39-19.39 19.39-21.22-21.22 19.39-19.39-19.39-19.39 21.22-21.22 19.39 19.39 19.39-19.39 21.22 21.22-19.39 19.39zm-60-98.78-21.22-21.22 34.4-34.39h-23.79c-41.35 0-75 33.65-75 75 0 57.9-47.1 105-105 105h-75v-30h75c41.35 0 75-33.65 75-75 0-57.9 47.1-105 105-105h23.79l-34.4-34.39 21.22-21.22 70.6 70.61z"/></svg>