<svg id="Capa_1" enable-background="new 0 0 512 512" height="512" viewBox="0 0 512 512" width="512" xmlns="http://www.w3.org/2000/svg"><g><path d="m256 392c107.52 0 195-88.48 195-196s-87.48-196-195-196-195 88.48-195 196 87.48 196 195 196zm-99.858-228.461c1.772-5.42 6.46-9.375 12.114-10.195l51.328-7.456 22.969-46.523c5.039-10.254 21.855-10.254 26.895 0l22.969 46.523 51.328 7.456c5.654.82 10.342 4.775 12.114 10.195 1.758 5.435.293 11.396-3.794 15.381l-37.148 36.226 8.76 51.138c.967 5.625-1.348 11.309-5.962 14.678-4.658 3.356-10.763 3.783-15.806 1.128l-45.909-24.142-45.908 24.141c-5.039 2.666-11.147 2.212-15.806-1.128-4.614-3.369-6.929-9.053-5.962-14.678l8.76-51.138-37.148-36.226c-4.087-3.983-5.552-9.945-3.794-15.38z"/><path d="m227.978 212.436-4.951 28.96 25.986-13.667c2.197-1.158 4.585-1.729 6.987-1.729s4.79.571 6.987 1.729l25.986 13.667-4.951-28.96c-.835-4.863.776-9.829 4.307-13.271l21.035-20.508-29.063-4.219c-4.893-.703-9.111-3.779-11.294-8.203l-13.007-26.339-13.008 26.338c-2.183 4.424-6.401 7.5-11.294 8.203l-29.063 4.219 21.035 20.508c3.531 3.442 5.143 8.408 4.308 13.272z"/><path d="m47.597 458.357c4.014 4.424 10.225 5.991 15.894 4.102l64.219-21.797 26.851 62.271c2.373 5.508 8.276 7.734 13.77 9.067 5.918 0 11.294-3.486 13.711-8.906l37.474-84.326c-52.121-8.555-98.181-34.979-131.761-72.883l-42.795 96.271c-2.417 5.449-1.392 11.807 2.637 16.201z"/><path d="m329.96 503.094c2.417 5.42 7.778 8.906 13.711 8.906 4.951-.938 11.396-3.56 13.77-9.067l26.851-62.271 64.219 21.797c5.654 1.89 11.88.322 15.894-4.102 4.028-4.395 5.054-10.752 2.637-16.201l-42.794-96.271c-33.58 37.905-79.64 64.329-131.761 72.883z"/></g></svg>