<svg id="Layer_1" enable-background="new 0 0 512 512" height="512" viewBox="0 0 512 512" width="512" xmlns="http://www.w3.org/2000/svg"><g><path d="m509.397 219.393c-.855-5.967-5.2-10.843-11.03-12.376l-25.494-6.709c-5.247-20.488-13.348-40.015-24.168-58.254l13.302-22.81c3.035-5.206 2.661-11.722-.95-16.546-7.274-9.718-15.361-19.045-24.038-27.725-8.657-8.66-17.986-16.748-27.726-24.042-4.824-3.612-11.341-3.987-16.549-.948l-22.806 13.304c-18.239-10.822-37.766-18.923-58.253-24.17l-6.709-25.493c-1.534-5.829-6.407-10.174-12.374-11.031-24.066-3.457-49.139-3.457-73.205 0-5.967.856-10.84 5.201-12.374 11.031l-6.709 25.493c-20.487 5.246-40.012 13.347-58.253 24.17l-22.806-13.304c-5.206-3.037-11.725-2.662-16.549.948-9.739 7.293-19.068 15.381-27.727 24.042-8.676 8.679-16.763 18.006-24.037 27.724-3.611 4.824-3.985 11.34-.95 16.546l13.302 22.81c-10.821 18.241-18.922 37.767-24.168 58.254l-25.494 6.709c-5.83 1.533-10.175 6.409-11.03 12.376-1.726 12.039-2.602 24.353-2.602 36.602s.876 24.563 2.603 36.601c.855 5.967 5.2 10.843 11.03 12.376l25.494 6.709c5.247 20.488 13.348 40.015 24.168 58.254l-13.302 22.81c-3.035 5.206-2.661 11.722.95 16.546 7.274 9.718 15.361 19.045 24.038 27.725 8.657 8.66 17.986 16.748 27.726 24.042 4.824 3.611 11.341 3.987 16.549.948l22.806-13.304c18.239 10.822 37.766 18.923 58.253 24.169l6.709 25.493c1.534 5.829 6.407 10.174 12.374 11.031 12.033 1.73 24.348 2.606 36.602 2.606s24.569-.876 36.603-2.604c5.967-.857 10.84-5.201 12.374-11.031l6.709-25.493c20.487-5.246 40.012-13.347 58.253-24.169l22.806 13.304c5.208 3.039 11.726 2.664 16.549-.948 9.739-7.293 19.068-15.381 27.727-24.042 8.676-8.679 16.763-18.006 24.037-27.724 3.611-4.824 3.985-11.34.95-16.546l-13.302-22.81c10.821-18.241 18.922-37.766 24.168-58.254l25.494-6.709c5.83-1.533 10.175-6.409 11.03-12.376 1.727-12.038 2.603-24.352 2.603-36.601s-.877-24.566-2.604-36.604zm-253.397 196.207c-88.004 0-159.6-71.596-159.6-159.6s71.596-159.6 159.6-159.6 159.6 71.596 159.6 159.6-71.596 159.6-159.6 159.6z"/><path d="m256 126.4c-71.462 0-129.6 58.138-129.6 129.6s58.138 129.6 129.6 129.6 129.6-58.138 129.6-129.6-58.138-129.6-129.6-129.6zm74.873 108.073-80.333 80.334c-2.813 2.813-6.628 4.394-10.606 4.394s-7.794-1.58-10.606-4.394l-40.168-40.167c-5.858-5.857-5.858-15.355 0-21.213 5.857-5.857 15.355-5.857 21.213 0l29.561 29.561 69.727-69.728c5.857-5.857 15.355-5.857 21.213 0 5.857 5.857 5.857 15.355-.001 21.213z"/></g></svg>