<svg height="511pt" viewBox="1 -15 511.99975 511" width="511pt" xmlns="http://www.w3.org/2000/svg"><path d="m15 481.523438h272.011719c8.292969 0 15.003906-6.710938 15.003906-15v-15.003907h-227.011719c-24.816406 0-45.003906-20.183593-45.003906-45v-376.019531h-15c-8.289062 0-15 6.710938-15 15.003906v421.019532c0 8.289062 6.710938 15 15 15zm0 0"/><path d="m242.011719 90.503906h81.214843l-81.214843-81.214844zm0 0"/><path d="m75.003906.5c-8.292968 0-15 6.710938-15 15v391.019531c0 8.289063 6.707032 15 15 15h242.011719c8.289063 0 15-6.710937 15-15v-19.28125c-9.761719 2.558594-19.753906 4.28125-30 4.28125-66.171875 0-120.007813-53.835937-120.007813-120.007812 0-66.167969 53.835938-120.003907 120.007813-120.003907 10.417969 0 20.351563 1.753907 30 4.261719v-35.265625h-105.003906c-8.292969 0-15-6.707031-15-15v-105.003906zm0 0"/><path d="m417.835938 344.933594c-5.855469-5.855469-15.34375-5.855469-21.199219-.011719l-21.390625-21.390625c10.472656-14.707031 16.773437-32.585938 16.773437-52.019531 0-49.707031-40.296875-90.003907-90.003906-90.003907-49.710937 0-90.003906 40.296876-90.003906 90.003907 0 49.710937 40.292969 90.003906 90.003906 90.003906 19.429687 0 37.308594-6.296875 52.019531-16.769531l21.386719 21.386718-.011719.007813c-5.859375 5.859375-5.859375 15.355469 0 21.21875l85.398438 85.394531c11.699218 11.703125 30.742187 11.679688 42.425781 0 11.6875-11.6875 11.6875-30.730468 0-42.421875zm0 0"/></svg>