<svg height="512pt" viewBox="-41 0 512 512" width="512pt" xmlns="http://www.w3.org/2000/svg"><path d="m215 230c63.410156 0 115-51.589844 115-115s-51.589844-115-115-115-115 51.589844-115 115 51.589844 115 115 115zm0 0"/><path d="m269.546875 230h-9.546875v73.515625l19.707031 98.542969c1.074219 5.371094-.863281 10.902344-5.058593 14.425781l-50 42c-2.789063 2.34375-6.21875 3.515625-9.648438 3.515625s-6.859375-1.171875-9.648438-3.515625l-50-42c-4.195312-3.523437-6.132812-9.054687-5.0625-14.425781l19.710938-98.542969v-73.515625h-9.546875c-88.472656 0-160.453125 78.503906-160.453125 175v92c0 8.285156 6.714844 15 15 15h400c8.285156 0 15-6.714844 15-15v-92c0-96.496094-71.980469-175-160.453125-175zm0 0"/><path d="m181.449219 399.230469 33.550781 28.179687 33.550781-28.179687-15.847656-79.230469h-35.40625zm0 0"/><path d="m200 260h30v30h-30zm0 0"/></svg>