<svg id="Capa_1" enable-background="new 0 0 512 512" height="512" viewBox="0 0 512 512" width="512" xmlns="http://www.w3.org/2000/svg"><g id="System_Update"><path d="m408.404 292.029-20.019-11.558c1.772-8.621 2.615-16.586 2.615-24.471s-.843-15.85-2.614-24.472l20.019-11.558c3.445-1.989 5.959-5.266 6.989-9.107 1.029-3.843.49-7.938-1.499-11.383l-30-51.961c-4.143-7.175-13.315-9.633-20.49-5.49l-19.837 11.453c-12.434-10.548-26.865-18.791-42.567-24.313v-23.169c0-8.284-6.716-15-15-15h-60c-8.284 0-15 6.716-15 15v23.169c-15.702 5.522-30.134 13.766-42.567 24.313l-19.837-11.453c-7.175-4.144-16.349-1.684-20.49 5.49l-30 51.961c-1.989 3.445-2.528 7.54-1.499 11.383 1.03 3.842 3.544 7.118 6.989 9.107l20.019 11.558c-1.773 8.622-2.616 16.587-2.616 24.472s.843 15.85 2.614 24.472l-20.019 11.558c-3.445 1.989-5.959 5.266-6.989 9.107-1.029 3.843-.49 7.938 1.499 11.383l30 51.961c4.143 7.176 13.317 9.634 20.49 5.49l19.837-11.453c12.434 10.548 26.865 18.791 42.567 24.313v23.169c0 8.284 6.716 15 15 15h60c8.284 0 15-6.716 15-15v-23.169c15.702-5.522 30.134-13.766 42.567-24.313l19.837 11.453c7.174 4.143 16.347 1.684 20.49-5.49l30-51.961c1.989-3.445 2.528-7.54 1.499-11.383-1.029-3.842-3.542-7.118-6.988-9.108zm-152.404 8.971c-24.813 0-45-20.187-45-45s20.187-45 45-45 45 20.187 45 45-20.187 45-45 45z"/><path d="m461.149 102.765-21.213-63.64c-2.62-7.859-11.115-12.108-18.974-9.487-7.859 2.62-12.106 11.114-9.487 18.974l1.803 5.409c-13.46-10.245-27.965-19.274-43.235-26.849-35.838-17.776-75.273-27.172-114.043-27.172-68.01 0-132.194 26.73-180.731 75.269-48.539 48.537-75.269 112.722-75.269 180.731 0 31.41 6.599 63.589 19.611 95.643 2.366 5.828 7.979 9.361 13.903 9.361 1.879 0 3.79-.355 5.638-1.105 7.676-3.116 11.372-11.865 8.256-19.541-11.552-28.453-17.408-56.835-17.408-84.358 0-124.617 101.383-226 226-226 45.74 0 91.914 15.216 130.277 41.606-7.333-1.505-14.801 2.665-17.228 9.944-2.619 7.858 1.628 16.354 9.487 18.974l63.64 21.214c5.367 1.788 11.316.411 15.35-3.624 4.017-4.017 5.42-9.96 3.623-15.349z"/><path d="m492.389 160.357c-3.117-7.677-11.867-11.37-19.541-8.256-7.676 3.116-11.372 11.865-8.256 19.541 11.552 28.453 17.408 56.835 17.408 84.358 0 124.617-101.383 226-226 226-45.74 0-91.914-15.216-130.277-41.606 7.332 1.504 14.801-2.664 17.228-9.944 2.619-7.858-1.628-16.354-9.487-18.974l-63.64-21.214c-5.388-1.797-11.333-.395-15.35 3.624-4.018 4.018-5.421 9.96-3.624 15.35l21.213 63.64c2.096 6.286 7.947 10.262 14.229 10.261 1.572 0 3.172-.249 4.745-.773 7.859-2.62 12.106-11.114 9.487-18.974l-1.803-5.409c13.46 10.245 27.965 19.274 43.235 26.849 35.839 17.774 75.274 27.17 114.044 27.17 68.01 0 132.194-26.73 180.731-75.269 48.539-48.537 75.269-112.722 75.269-180.731 0-31.41-6.599-63.589-19.611-95.643z"/></g></svg>