<svg id="Capa_1" enable-background="new 0 0 512 512" viewBox="0 0 512 512" xmlns="http://www.w3.org/2000/svg"><g><path d="m173.531 449.23h-173.531c6.469 21.645 26.564 37.469 50.285 37.469h123.247v-37.469z"/><path d="m338.469 449.23v37.469h123.247c23.721 0 43.815-15.824 50.284-37.469z"/><path d="m203.531 449.23h104.938v37.469h-104.938z"/><path d="m460.274 383.629v-170.921c0-19.631-15.971-35.602-35.602-35.602h-2.549c-7.61 84.974-79.202 151.805-166.123 151.805s-158.513-66.831-166.123-151.805h-2.549c-19.631 0-35.602 15.971-35.602 35.602v170.921c0 19.631 15.971 35.602 35.602 35.602h337.344c19.631-.001 35.602-15.971 35.602-35.602z"/><path d="m256 298.911c75.435 0 136.805-61.37 136.805-136.805s-61.37-136.805-136.805-136.805-136.805 61.37-136.805 136.805 61.371 136.805 136.805 136.805zm35.602-183.672h30v30h-30zm-101.203 0h30v30h-30zm65.601 129.336c-36.173 0-65.602-29.429-65.602-65.602h30c0 19.631 15.971 35.602 35.602 35.602s35.602-15.971 35.602-35.602h30c0 36.173-29.429 65.602-65.602 65.602z"/></g><g/><g/><g/><g/><g/><g/><g/><g/><g/><g/><g/><g/><g/><g/><g/></svg>