<svg height="512pt" viewBox="0 0 512 512.00039" width="512pt" xmlns="http://www.w3.org/2000/svg"><path d="m359.984375 212.050781 102.496094-56.355469c24.144531-13.28125 24.132812-48.0625 0-61.339843l-163.632813-89.976563c-23.316406-12.816406-51.855468 4.027344-51.855468 30.671875v40.964844h19.488281c51.558593 0 93.503906 41.949219 93.503906 93.507813zm0 0"/><path d="m266.480469 106.015625h-202.972657c-35.019531 0-63.507812 28.488281-63.507812 63.507813v56.488281h103.796875c13.847656-18.78125 36.117187-31 61.195313-31 25.082031 0 47.351562 12.21875 61.199218 31h103.796875v-56.488281c0-35.019532-28.488281-63.507813-63.507812-63.507813zm-10.492188 89.988281c-8.277343 0-14.996093-6.722656-14.996093-15 0-8.28125 6.71875-15 14.996093-15 8.28125 0 15 6.71875 15 15 0 8.277344-6.71875 15-15 15zm0 0"/><path d="m90.488281 256.011719h-90.488281v116.484375c0 35.019531 28.488281 63.507812 63.507812 63.507812h132.484376v-95.605468c-56.113282 25.183593-117.609376-23.875-105.503907-84.386719zm0 0"/><path d="m234.820312 301.007812h81.167969v-44.996093h-76.488281c3.027344 15.128906 1.4375 30.808593-4.679688 44.996093zm0 0"/><path d="m164.992188 225.011719c-25.363282 0-45.996094 20.636719-45.996094 46 0 25.359375 20.632812 45.996093 45.996094 45.996093 25.363281 0 46-20.636718 46-45.996093 0-25.253907-20.539063-46-46-46zm0 0"/><path d="m225.992188 512h74.996093c8.28125 0 15-6.71875 15-15v-165.992188h-89.996093zm0 0"/><path d="m466.980469 302.007812h-47.976563c12.210938-19.167968 6.878906-44.757812-12.109375-57.417968-17.839843-11.898438-43.660156-10.484375-60.90625 15.820312v251.589844h80.996094c46.867187 0 84.996094-38.128906 84.996094-84.996094v-79.996094c0-24.808593-20.191407-45-45-45zm0 0"/></svg>