<?xml version="1.0" encoding="iso-8859-1"?>
<!-- Generator: Adobe Illustrator 19.0.0, SVG Export Plug-In . SVG Version: 6.00 Build 0)  -->
<svg version="1.1" id="Capa_1" xmlns="http://www.w3.org/2000/svg" xmlns:xlink="http://www.w3.org/1999/xlink" x="0px" y="0px"
	 viewBox="0 0 512 512" style="enable-background:new 0 0 512 512;" xml:space="preserve">
<g>
	<g>
		<path d="M45,180.985H15c-8.291,0-15,6.709-15,15s6.709,15,15,15h30c8.291,0,15-6.709,15-15S53.291,180.985,45,180.985z"/>
	</g>
</g>
<g>
	<g>
		<path d="M52.211,105.985L31,84.775c-5.859-5.859-15.352-5.859-21.211,0c-5.859,5.859-5.859,15.352,0,21.211L31,127.196
			c5.86,5.86,15.351,5.86,21.211,0C58.07,121.337,58.07,111.844,52.211,105.985z"/>
	</g>
</g>
<g>
	<g>
		<path d="M52.211,264.775c-5.859-5.859-15.352-5.86-21.211,0L9.789,285.986c-5.859,5.859-5.859,15.352,0,21.211
			c5.86,5.86,15.351,5.86,21.211,0l21.211-21.211C58.07,280.127,58.07,270.634,52.211,264.775z"/>
	</g>
</g>
<g>
	<g>
		<path d="M497,180.985h-30c-8.291,0-15,6.709-15,15s6.709,15,15,15h30c8.291,0,15-6.709,15-15S505.291,180.985,497,180.985z"/>
	</g>
</g>
<g>
	<g>
		<path d="M502.211,84.774c-5.859-5.859-15.352-5.859-21.211,0l-21.211,21.211c-5.859,5.859-5.859,15.352,0,21.211
			c5.86,5.86,15.351,5.86,21.211,0l21.211-21.211C508.07,100.126,508.07,90.633,502.211,84.774z"/>
	</g>
</g>
<g>
	<g>
		<path d="M502.211,285.985L481,264.775c-5.859-5.859-15.352-5.859-21.211,0s-5.859,15.352,0,21.211L481,307.196
			c5.86,5.86,15.351,5.86,21.211,0C508.07,301.337,508.07,291.844,502.211,285.985z"/>
	</g>
</g>
<g>
	<g>
		<path d="M369.452,40.239C327.147,5.845,271.645-7.397,217.343,4.028C149.638,18.164,94.501,74.125,80.146,141.801
			C67.944,199.384,83.002,257.187,121.44,300.4c15.54,17.487,25.02,38.593,28.129,60.586H196v-135
			c0-5.809,43.984-91.514,46.582-96.709c5.098-10.166,21.738-10.166,26.836,0c2.721,5.442,46.582,91.191,46.582,96.709v135h46.483
			c3.215-21.888,12.973-43.33,28.956-61.567C420.18,266.65,436,224.579,436,180.985C436,126.537,411.742,74.604,369.452,40.239z"/>
	</g>
</g>
<g>
	<g>
		<path d="M256,254.667c-10.142,0-20.244-1.767-30-4.993v111.312h60V249.674C276.244,252.9,266.142,254.667,256,254.667z"/>
	</g>
</g>
<g>
	<g>
		<path d="M151,390.986v15c0,24.814,20.186,45,45,45h120c24.814,0,45-20.186,45-45v-15H151z"/>
	</g>
</g>
<g>
	<g>
		<path d="M256,169.53l-24.789,49.578c16.02,6.563,33.558,6.563,49.578,0L256,169.53z"/>
	</g>
</g>
<g>
	<g>
		<path d="M183.763,480.986c6.213,17.422,22.707,31,42.237,31h60c19.53,0,36.024-13.578,42.237-31H183.763z"/>
	</g>
</g>
<g>
</g>
<g>
</g>
<g>
</g>
<g>
</g>
<g>
</g>
<g>
</g>
<g>
</g>
<g>
</g>
<g>
</g>
<g>
</g>
<g>
</g>
<g>
</g>
<g>
</g>
<g>
</g>
<g>
</g>
</svg>
