<svg id="Capa_1" enable-background="new 0 0 512.786 512.786" height="512" viewBox="0 0 512.786 512.786" width="512" xmlns="http://www.w3.org/2000/svg"><g><path d="m90.393 285.99c0-11.567-4.508-22.02-11.704-30 7.196-7.98 11.704-18.433 11.704-30 0-24.814-20.186-45-45-45h-45c0 11.515 0 157.508 0 150h45c24.814 0 45-20.186 45-45zm-60-75h15c8.276 0 15 6.724 15 15s-6.724 15-15 15h-15zm0 60h15c8.276 0 15 6.724 15 15s-6.724 15-15 15h-15z"/><path d="m195.787 225.99c0-24.814-20.186-45-45-45h-45c0 11.515 0 157.508 0 150h30v-60h5.728l32.563 65.127 26.836-13.418-28.694-57.389c13.965-7.646 23.567-22.306 23.567-39.32zm-60 15v-30h15c8.276 0 15 6.724 15 15s-6.724 15-15 15z"/><path d="m300.787 330.99c0-11.383 0-110.079 0-105 0-24.814-20.186-45-45-45s-45 20.186-45 45c0 24.188 0 108.081 0 105h30v-60h30v60zm-60-90v-15c0-8.276 6.724-15 15-15s15 6.724 15 15v15z"/><path d="m467.393 180.99h-46.606v150h46.606c24.814 0 45-20.186 45-45v-60c0-24.815-20.186-45-45-45zm15 105c0 8.276-6.724 15-15 15h-16.606v-90h16.606c8.276 0 15 6.724 15 15z"/><path d="m364.068 330.99h41.719v-150h-30v73.154l-18.281-73.154h-41.719v150h30v-73.154z"/><path d="m446.306 120.99c-.121-.895-.364-1.763-.324-2.695l-.015-6.328c.469-12.261-4.307-24.331-13.066-33.062-8.76-8.789-20.889-13.564-32.52-13.11h-7.251c-5.889-.146-11.88-3.56-14.355-10.137l-2.373-5.435c-4.248-11.807-13.433-21.196-24.58-25.459-11.074-4.863-23.979-4.731-35.376.234l-6.357 2.739c-5.933 2.593-12.583 1.274-17.3-3.75l-4.248-4.219c-16.289-18.164-49.775-17.578-64.951-.586l-5.156 5.156c-4.351 4.658-11.001 5.977-17.007 3.369l-6.196-2.651c-11.514-5.083-24.448-5.171-34.834-.571-11.792 4.541-20.977 13.931-24.888 24.873l-2.974 6.973c-2.212 5.903-8.13 9.8-14.443 9.463l-6.328.015c-12.568-.381-24.316 4.321-33.062 13.066-8.789 8.76-13.564 20.83-13.11 32.52l.015 7.603c.029.621-.529 1.333-.61 1.992h-64.604v30c10.441 0 528.65 0 512 0v-30z"/><path d="m.393 360.99v30h64.875c.121.895.364 1.763.324 2.695l.015 6.328c-.469 12.261 4.307 24.331 13.066 33.062 8.76 8.789 20.625 13.301 32.52 13.11h7.251c5.127-.146 11.865 3.545 14.355 10.137l2.373 5.435c4.248 11.807 13.433 21.196 24.58 25.459 11.06 4.863 23.979 4.746 35.376-.234l6.357-2.739c5.977-2.593 12.583-1.274 17.3 3.75l4.248 4.219c8.145 9.082 20.083 14.282 32.754 14.282s24.609-5.2 32.197-13.696l5.156-5.156c4.365-4.658 11.03-5.991 17.007-3.369l6.196 2.651c11.47 5.054 24.404 5.142 34.834.571 11.792-4.541 20.977-13.931 24.888-24.873l2.974-6.973c2.212-5.903 7.69-9.712 14.443-9.463l6.328-.015c12.773.732 24.331-4.307 33.062-13.066 8.789-8.76 13.564-20.83 13.11-32.52l-.015-7.603c-.029-.621.529-1.333.61-1.992h65.815v-30c-10.44 0-528.649 0-511.999 0z"/></g></svg>