<?xml version="1.0" encoding="iso-8859-1"?>
<!-- Generator: Adobe Illustrator 19.0.0, SVG Export Plug-In . SVG Version: 6.00 Build 0)  -->
<svg version="1.1" id="Capa_1" xmlns="http://www.w3.org/2000/svg" xmlns:xlink="http://www.w3.org/1999/xlink" x="0px" y="0px"
	 viewBox="0 0 512 512" style="enable-background:new 0 0 512 512;" xml:space="preserve">
<g>
	<g>
		<rect x="258.3" width="30.02" height="57.03"/>
	</g>
</g>
<g>
	<g>
		<rect x="307.782" y="26.77" transform="matrix(0.344 -0.939 0.939 0.344 181.3885 343.1794)" width="57.032" height="30.011"/>
	</g>
</g>
<g>
	<g>
		<rect x="195.319" y="13.271" transform="matrix(0.939 -0.344 0.344 0.939 -1.5387 74.8997)" width="30.011" height="57.032"/>
	</g>
</g>
<g>
	<g>
		<polygon points="411.026,130.064 298.381,130.064 322.412,174.875 435.057,174.875 		"/>
	</g>
</g>
<g>
	<g>
		<polygon points="135.591,130.064 111.56,174.875 224.204,174.875 248.236,130.064 		"/>
	</g>
</g>
<g>
	<g>
		<path d="M304.454,204.89l-31.146-58.088l-31.145,58.088H130.549v70.074c13.006-6.983,33.196-13.737,62.611-13.737
			c32.226,0,52.806,8.824,65.142,17.288c4.132,2.841,7.344,5.653,9.755,8.064h60.55c16.338,0,30.755,8.444,39.089,21.19
			l48.353-33.296c0.01-0.01,0.01-0.01,0.02-0.02V204.89H304.454z"/>
	</g>
</g>
<g>
	<g>
		<path d="M490.664,257.576c-22.081,2.711-45.162,27.594-52.195,36.948l-1.471,1.961l-20.93,14.417l-41.14,28.334
			c-0.22,1.751-0.54,3.482-0.961,5.173c-4.992,20.41-23.441,35.587-45.362,35.587H227.746v-30.015h100.859
			c4.942,0,9.385-2.151,12.436-5.573c2.783-3.11,4.422-7.275,4.238-11.805c-0.367-9.029-8.122-16.009-17.159-16.009h-75.682
			l-3.852-6.813c-1.491-1.971-15.277-18.539-55.427-18.539c-8.371,0-15.692,0.647-22.057,1.693
			c-14.127,2.322-27.292,8.648-38.189,17.933l-2.364,2.015l-7.704,7.874l66.693,124.01h154.435l100.159-73.146l67.603-108.173
			C505.152,258.496,498.418,256.635,490.664,257.576z"/>
	</g>
</g>
<g>
	<g>
		<polygon points="77.273,299.386 0.265,339.596 90.279,512 169.398,470.7 		"/>
	</g>
</g>
<g>
</g>
<g>
</g>
<g>
</g>
<g>
</g>
<g>
</g>
<g>
</g>
<g>
</g>
<g>
</g>
<g>
</g>
<g>
</g>
<g>
</g>
<g>
</g>
<g>
</g>
<g>
</g>
<g>
</g>
</svg>
