<svg id="Capa_1" enable-background="new 0 0 512 512" height="512" viewBox="0 0 512 512" width="512" xmlns="http://www.w3.org/2000/svg"><g><path d="m182.292 178.278c1.038 5.163 2.279 10.299 3.711 15.383 6.933-1.572 13.886-2.898 20.733-3.944 13.039-2.271 24.593-5.907 33.725-10.593-17.103-15.908-36.844-28.919-57.194-37.082-3.26 10.377-3.996 22.53-1.034 35.963z"/><path d="m115.263 270.075c-2.142 4.334-3.921 8.93-5.323 13.708 6.115 5.994 13.885 11.453 23.754 15.672 26.456 11.309 55.474 12.904 82.716 5.019-3.208-3.206-6.353-6.562-9.433-10.066-16.438-18.705-30.037-40.726-39.972-64.386-5.167 1.707-10.2 3.548-15.028 5.504-16.061 6.503-28.757 18.451-36.714 34.549z"/><path d="m140.716 207.719c5.272-2.135 10.76-4.147 16.389-6.017-1.618-5.745-3.021-11.546-4.197-17.376-3.68-16.788-3.365-33.148.838-48.237-9.04.302-17.621 2.747-25.679 7.333-14.214 8.09-26.101 22.668-33.471 41.05-8.589 21.421-10.082 45.553-4.095 66.208.125.43.254.865.389 1.303 11.358-20.379 28.49-35.624 49.826-44.264z"/><path d="m264.492 151.815c1.653-7.437.524-15.966-3.098-23.399-9.707-19.926-26.789-27.893-45.694-21.303-5.669 1.974-11.095 5.138-15.919 9.337 22.271 9.793 43.753 24.491 62.431 42.157.995-2.161 1.754-4.422 2.28-6.792z"/><path d="m211.714 219.302-.305.049c-5.013.763-10.086 1.691-15.159 2.771 8.51 19.26 19.795 37.159 33.262 52.482 5.425 6.174 11.065 11.787 16.888 16.824 16.492-9.798 31.223-23.293 43.975-40.271-1.142-2.268-2.35-4.555-3.62-6.854l-.402-.729-.32-.769c-5.933-14.273-14.403-28.222-24.671-41.13-13.136 8.21-29.83 14.192-49.648 17.627z"/><path d="m121.902 327.041c-5.453-2.331-10.624-5.044-15.489-8.111.072.918.158 1.838.255 2.755 1.839 17.252 8.147 33.462 17.761 45.645 10.329 13.089 23.746 21.149 39.879 23.958 51.668 8.988 104.215-7.811 127.774-40.869.3-.421.595-.843.884-1.268-17.353-4.129-34.11-11.685-49.866-22.432-38.842 16.715-82.225 16.982-121.198.322z"/><path d="m483.32 372.947c18.777-36.479 28.298-75.827 28.298-116.947 0-68.317-26.587-132.562-74.862-180.901-48.271-48.333-112.473-75.004-180.777-75.099-68.262.095-132.463 26.766-180.734 75.099-48.276 48.339-74.862 112.584-74.862 180.901 0 68.316 26.587 132.562 74.862 180.9 48.271 48.334 112.472 75.005 180.776 75.1 28.408-.04 56.472-4.783 83.371-14.099l2.92-1.012 145.955 10.663-6.8-131.006zm-28.491-22.16-15.725 25.549c-15.929-9.805-29.435-20.467-40.434-31.902-5.805 2.016-11.889 3.728-18.244 5.131-20.351 4.497-39.684 4.992-55.372 4.015-2.43 4.918-5.278 9.673-8.541 14.25-15.406 21.618-39.272 38.015-69.018 47.418-17.561 5.551-36.658 8.374-55.791 8.374-10.928 0-21.865-.92-32.542-2.779-44.623-7.768-76.938-45.44-82.326-95.977-1.179-11.062-.92-22.22.702-33.021-6.992-9.717-12.353-20.74-15.852-32.812-7.815-26.963-5.969-58.208 5.063-85.725 9.885-24.652 26.391-44.525 46.478-55.958 16.83-9.578 35.457-13.078 54.787-10.433 9.765-13.116 22.875-22.929 37.818-28.134 15.363-5.35 31.65-5.167 45.86.519 15.558 6.225 28.238 18.665 36.672 35.976 6.634 13.617 8.557 28.906 5.413 43.05-1.877 8.439-5.357 16.174-10.341 23.13 10.148 12.474 18.861 25.824 25.631 39.56 13.543-26.484 23.338-58.146 29.184-94.396l29.617 4.775c-7.656 47.477-21.762 88.109-41.924 120.771-.433.699-.866 1.395-1.304 2.087 7.175 18.102 10.847 35.599 10.943 52.251.035 5.952-.379 11.76-1.237 17.41 14.671.297 30.115-1.119 44.742-4.938-1.489-2.515-2.875-5.058-4.156-7.629-13.371-26.844-12.021-50.021-8.533-64.735 6.912-29.164 28.312-50.968 52.04-53.021 19.138-1.658 35.99 10.001 45.083 31.187 12.716 29.629 6.546 65.175-15.354 88.45-6.142 6.528-13.072 12.3-20.765 17.302 7.832 7.064 16.985 13.828 27.426 20.255z"/><path d="m421.917 223.439c-.292 0-.589.013-.89.039-9.191.795-21.219 12.253-25.437 30.051-2.345 9.894-3.173 25.634 6.195 44.441 1.619 3.252 3.473 6.46 5.558 9.622 6.994-4.07 13.41-9.007 18.976-14.923 13.624-14.48 17.586-37.534 9.635-56.062-2.611-6.085-7.135-13.168-14.037-13.168z"/><path d="m273.114 309.812c10.143 5.321 20.622 9.056 31.296 11.119 2.017-11.577 1.407-24.116-1.821-37.448-9.083 10.053-18.924 18.845-29.475 26.329z"/></g></svg>