<svg id="Capa_1" enable-background="new 0 0 512 512" height="512" viewBox="0 0 512 512" width="512" xmlns="http://www.w3.org/2000/svg"><g><path d="m121 286c0 8.291 6.709 15 15 15h240c8.291 0 15-6.709 15-15s-6.709-15-15-15h-36.103c30.914-24.739 51.103-62.327 51.103-105 0-74.559-60.441-135-135-135s-135 60.441-135 135c0 42.673 20.189 80.261 51.103 105h-36.103c-8.291 0-15 6.709-15 15zm120-30v-17.725c-6.248-2.21-12.028-5.647-16.846-10.474-5.83-5.859-5.83-15.366.029-21.211 5.859-5.83 15.381-5.859 21.24.029 8.614 8.658 25.577 1.7 25.577-10.619 0-8.276-6.738-15-15-15-24.814 0-45-20.186-45-45 0-19.53 12.578-36.024 30-42.237v-17.763c0-8.291 6.709-15 15-15s15 6.709 15 15v17.725c6.248 2.21 12.028 5.647 16.846 10.474 5.83 5.859 5.83 15.366-.029 21.211-5.859 5.83-15.381 5.859-21.24-.029-8.614-8.658-25.577-1.686-25.577 10.619 0 8.276 6.738 15 15 15 24.814 0 45 20.186 45 45 0 19.53-12.578 36.024-30 42.237v17.763c0 8.291-6.709 15-15 15s-15-6.709-15-15z"/><path d="m509.25 427.346c-2.811-3.979-7.379-6.346-12.252-6.346h-481.995c-4.872 0-9.443 2.366-12.255 6.346-2.811 3.981-3.514 9.078-1.884 13.672 8.261 23.274 30.503 39.982 56.566 39.982h397.14c26.063 0 48.305-16.708 56.567-39.981 1.63-4.592.923-9.692-1.887-13.673z"/><path d="m481 106c0-8.291-6.709-15-15-15h-63.217c11.561 22.533 18.217 47.983 18.217 75 0 29.707-8.005 57.534-21.804 81.638 13.008 7.897 21.804 22.064 21.804 38.362 0 24.814-20.186 45-45 45h-240c-24.814 0-45-20.186-45-45 0-16.298 8.796-30.465 21.804-38.362-13.799-24.104-21.804-51.931-21.804-81.638 0-27.017 6.656-52.467 18.217-75h-63.217c-8.291 0-15 6.709-15 15v285h450z"/></g></svg>