<svg id="Capa_1" enable-background="new 0 0 512 512" height="512" viewBox="0 0 512 512" width="512" xmlns="http://www.w3.org/2000/svg"><g><path d="m346 120c-8.284 0-15-6.716-15-15v-105h-255c-8.284 0-15 6.716-15 15v482c0 8.284 6.716 15 15 15h360c8.284 0 15-6.716 15-15v-377zm-164.784 199.677c-2.367 1.371-4.953 2.023-7.504 2.023-5.177 0-10.212-2.682-12.994-7.484l-29.953-51.711c-2.741-4.732-2.689-10.58.134-15.263l29.953-49.684c4.277-7.095 13.496-9.38 20.591-5.102 7.095 4.277 9.378 13.496 5.102 20.591l-25.376 42.091 25.51 44.04c4.151 7.169 1.706 16.347-5.463 20.499zm111.024-114.207-44.605 112.147c-2.338 5.879-7.979 9.46-13.942 9.46-1.845 0-3.721-.342-5.539-1.066-7.698-3.061-11.456-11.783-8.395-19.481l44.604-112.148c3.062-7.698 11.785-11.458 19.481-8.395 7.699 3.063 11.458 11.786 8.396 19.483zm88.995 57.035-29.953 51.711c-2.781 4.801-7.817 7.484-12.994 7.484-2.552 0-5.137-.652-7.504-2.023-7.168-4.152-9.613-13.33-5.461-20.498l25.51-44.04-25.376-42.091c-4.277-7.095-1.993-16.313 5.102-20.591 7.094-4.276 16.313-1.993 20.591 5.102l29.953 49.684c2.822 4.682 2.873 10.53.132 15.262z"/><path d="m361 8.787v81.213h81.213z"/></g></svg>