<?xml version="1.0" encoding="iso-8859-1"?>
<!-- Generator: Adobe Illustrator 21.0.0, SVG Export Plug-In . SVG Version: 6.00 Build 0)  -->
<svg xmlns="http://www.w3.org/2000/svg" xmlns:xlink="http://www.w3.org/1999/xlink" version="1.1" id="Capa_1" x="0px" y="0px" viewBox="0 0 511.967 511.967" style="enable-background:new 0 0 511.967 511.967;" xml:space="preserve" width="512" height="512">
<g>
	<polygon points="439.074,136.354 439.074,223.288 490.777,175.958  "/>
	<path d="M226.039,292.77c17.249-15.292,42.746-15.368,59.948,0.059l38.957,34.934c12.426-11.375,78.771-70.958,84.148-76.84   c-0.008-56.593-0.109-113.153-0.109-169.703c0-8.284-6.716-15-15-15h-276c-8.284,0-15,6.716-15,15v168.526l84.464,77.237   L226.039,292.77z M227.983,134.466h116c8.284,0,15,6.716,15,15c0,8.284-6.716,15-15,15h-116c-8.284,0-15-6.716-15-15   C212.983,141.181,219.699,134.466,227.983,134.466z M227.983,194.465h116c8.284,0,15,6.716,15,15s-6.716,15-15,15h-116   c-8.284,0-15-6.716-15-15S219.699,194.465,227.983,194.465z M167.984,224.465c-8.262,0-15-6.738-15-15c0-8.262,6.739-15,15-15   s15,6.738,15,15C182.984,217.727,176.245,224.465,167.984,224.465z M167.984,164.466c-8.262,0-15-6.739-15-15   c0-8.262,6.739-15,15-15s15,6.738,15,15C182.984,157.727,176.245,164.466,167.984,164.466z"/>
	<path d="M265.309,3.257c-5.24-4.18-12.838-4.438-18.407-0.187l-43.276,33.148h104.716L265.309,3.257z"/>
	<path d="M245.843,315.153L23.84,511.967h461.77L266.065,315.094C260.328,309.949,251.606,310.044,245.843,315.153z"/>
	<polygon points="73.072,136.218 21.789,175.499 73.072,222.394  "/>
	<polygon points="5.983,201.507 5.983,487.856 164.979,346.901  "/>
	<polygon points="347.284,347.795 505.983,490.106 505.983,202.521  "/>
</g>















</svg>
