<svg height="511pt" viewBox="-45 1 511 511.99899" width="511pt" xmlns="http://www.w3.org/2000/svg"><path d="m413.464844 71.792969-62.921875-62.921875v62.804687zm0 0"/><path d="m422.414062 101.9375h-87.042968c-8.351563-.015625-15.117188-6.789062-15.117188-15.144531v-86.792969h-252.867187c-8.367188 0-15.148438 6.78125-15.148438 15.144531v270.945313c15.769531-6.589844 33.058594-10.234375 51.1875-10.234375 6.917969 0 13.710938.53125 20.347657 1.554687-.496094-1.496094-.773438-3.089844-.773438-4.75 0-8.363281 6.78125-15.144531 15.148438-15.144531h182.410156c8.363281 0 15.144531 6.78125 15.144531 15.144531 0 8.363282-6.78125 15.144532-15.144531 15.144532h-162.011719c46.027344 21.007812 78.097656 67.460937 78.097656 121.269531 0 20.808593-4.800781 40.519531-13.347656 58.082031h183.972656c8.363281 0 15.144531-6.78125 15.144531-15.144531zm-156.378906 51.578125c0 8.367187-6.78125 15.144531-15.144531 15.144531h-112.742187c-8.367188 0-15.148438-6.777344-15.148438-15.144531 0-8.363281 6.78125-15.144531 15.148438-15.144531h112.742187c8.363281 0 15.144531 6.78125 15.144531 15.144531zm54.523438 74.71875h-182.410156c-8.367188 0-15.148438-6.78125-15.148438-15.144531 0-8.367188 6.78125-15.148438 15.148438-15.148438h182.410156c8.363281 0 15.144531 6.78125 15.144531 15.148438 0 8.363281-6.78125 15.144531-15.144531 15.144531zm0 0"/><path d="m206.351562 409.074219c0-56.753907-46.171874-102.925781-102.925781-102.925781-56.753906 0-102.925781 46.171874-102.925781 102.925781 0 56.753906 46.171875 102.925781 102.925781 102.925781 56.753907 0 102.925781-46.171875 102.925781-102.925781zm-59.621093 44.261719c-2.957031 2.957031-6.832031 4.4375-10.707031 4.4375s-7.753907-1.480469-10.710938-4.4375l-21.886719-21.886719-21.886719 21.886719c-2.957031 2.957031-6.832031 4.4375-10.707031 4.4375-3.878906 0-7.753906-1.476563-10.710937-4.4375-5.914063-5.914063-5.914063-15.503907 0-21.417969l21.886718-21.886719-21.886718-21.886719c-5.914063-5.914062-5.914063-15.503906 0-21.417969 5.914062-5.914062 15.503906-5.914062 21.417968 0l21.890626 21.886719 21.886718-21.886719c5.914063-5.914062 15.503906-5.917968 21.417969 0 5.914063 5.914063 5.914063 15.503907 0 21.417969l-21.886719 21.886719 21.886719 21.886719c5.910156 5.914062 5.910156 15.503906-.003906 21.417969zm0 0"/></svg>