<?xml version="1.0" encoding="iso-8859-1"?>
<!-- Generator: Adobe Illustrator 19.0.0, SVG Export Plug-In . SVG Version: 6.00 Build 0)  -->
<svg xmlns="http://www.w3.org/2000/svg" xmlns:xlink="http://www.w3.org/1999/xlink" version="1.1" id="Layer_1" x="0px" y="0px" viewBox="0 0 512.008 512.008" style="enable-background:new 0 0 512.008 512.008;" xml:space="preserve" width="512" height="512">
<g>
	<polygon points="512,458.742 482.002,458.75 482.002,370.937 391.998,370.937 391.998,458.773 361.994,458.781 361.994,310.933    271.991,310.933 271.991,458.804 241.987,458.812 241.987,250.929 151.983,250.929 151.983,458.835 121.979,458.843    121.979,190.926 31.976,190.926 31.976,458.866 0,458.874 0.008,488.874 512.008,488.742  "/>
	<polygon points="378.137,250.782 385.797,279.787 458.311,260.635 439.158,188.122 410.152,195.783 416.182,218.609 82.561,23.134    67.395,49.017 401.305,244.663  "/>
</g>















</svg>
