<?xml version="1.0" encoding="UTF-8" standalone="no"?>
<!-- Created with Inkscape (http://www.inkscape.org/) -->

<svg
   version="1.1"
   id="svg297"
   xml:space="preserve"
   width="682.66669"
   height="682.66669"
   viewBox="0 0 682.66669 682.66669"
   xmlns="http://www.w3.org/2000/svg"
   xmlns:svg="http://www.w3.org/2000/svg"><defs
     id="defs301"><clipPath
       clipPathUnits="userSpaceOnUse"
       id="clipPath311"><path
         d="M 0,512 H 512 V 0 H 0 Z"
         id="path309" /></clipPath><clipPath
       clipPathUnits="userSpaceOnUse"
       id="clipPath327"><path
         d="M 0,512 H 512 V 0 H 0 Z"
         id="path325" /></clipPath></defs><g
     id="g303"
     transform="matrix(1.3333333,0,0,-1.3333333,0,682.66667)"><g
       id="g305"><g
         id="g307"
         clip-path="url(#clipPath311)"><g
           id="g313"
           transform="translate(378.0889,382.0005)"><path
             d="M 0,0 H 63.909 L 123.911,-30 63.909,-60 H 13.376"
             style="fill:none;stroke:#000000;stroke-width:20;stroke-linecap:round;stroke-linejoin:round;stroke-miterlimit:22.926;stroke-dasharray:none;stroke-opacity:1"
             id="path315" /></g></g></g><g
       id="g317"
       transform="translate(417.998,328.3018)"><path
         d="M 0,0 V 47.398"
         style="fill:none;stroke:#000000;stroke-width:20;stroke-linecap:round;stroke-linejoin:round;stroke-miterlimit:22.926;stroke-dasharray:none;stroke-opacity:1"
         id="path319" /></g><g
       id="g321"><g
         id="g323"
         clip-path="url(#clipPath327)"><g
           id="g329"
           transform="translate(368.0889,378.6299)"><path
             d="m 0,0 v 46.281 c 0,16.333 -13.365,29.696 -29.694,29.696 -16.327,0 -29.696,-13.369 -29.696,-29.696"
             style="fill:none;stroke:#000000;stroke-width:20;stroke-linecap:round;stroke-linejoin:round;stroke-miterlimit:22.926;stroke-dasharray:none;stroke-opacity:1"
             id="path331" /></g><g
           id="g333"
           transform="translate(249.3096,435.0337)"><path
             d="M 0,0 C 0,16.332 -13.361,29.691 -29.693,29.691 -46.019,29.691 -59.387,16.323 -59.387,0 v -113.976 c 0,-16.317 13.372,-29.692 29.693,-29.692 16.328,0 29.694,13.362 29.694,29.692 V 11.271 c 0,16.327 13.363,29.696 29.695,29.696 16.333,0 29.695,-13.363 29.695,-29.696 v -63.249"
             style="fill:none;stroke:#000000;stroke-width:20;stroke-linecap:round;stroke-linejoin:round;stroke-miterlimit:22.926;stroke-dasharray:none;stroke-opacity:1"
             id="path335" /></g><g
           id="g337"
           transform="translate(224.2285,272.0469)"><path
             d="M 0,0 C 17.559,30.702 50.221,49.648 85.592,49.648"
             style="fill:none;stroke:#000000;stroke-width:20;stroke-linecap:round;stroke-linejoin:round;stroke-miterlimit:22.926;stroke-dasharray:none;stroke-opacity:1"
             id="path339" /></g><g
           id="g341"
           transform="translate(189.9229,349.4175)"><path
             d="m 0,0 c 0,-16.332 -13.362,-29.694 -29.693,-29.694 -16.326,0 -29.696,13.369 -29.696,29.694"
             style="fill:none;stroke:#000000;stroke-width:20;stroke-linecap:round;stroke-linejoin:round;stroke-miterlimit:22.926;stroke-dasharray:none;stroke-opacity:1"
             id="path343" /></g><g
           id="g345"
           transform="translate(174.5879,184.4473)"><path
             d="m 0,0 v -58.003 m 162.823,0 V 0.313 c 26.979,23.029 44.054,57.227 44.054,95.331 v 71.3 c 0,16.332 -13.365,29.693 -29.694,29.693 h -72.768 c -16.326,0 -29.693,-13.365 -29.693,-29.693 0,-16.331 13.362,-29.696 29.693,-29.696 H 147.49 M 15.335,230.342 c 0,16.332 -13.362,29.694 -29.694,29.694 -16.331,0 -29.696,-13.376 -29.696,-29.694 l 10e-4,-134.698 c 0,-53.998 34.574,-100.316 82.674,-117.908"
             style="fill:none;stroke:#000000;stroke-width:20;stroke-linecap:round;stroke-linejoin:round;stroke-miterlimit:22.926;stroke-dasharray:none;stroke-opacity:1"
             id="path347" /></g><path
           d="M 160.968,116.443 H 351.031 V 36 H 160.968 Z"
           style="fill:none;stroke:#000000;stroke-width:20;stroke-linecap:round;stroke-linejoin:round;stroke-miterlimit:22.926;stroke-dasharray:none;stroke-opacity:1"
           id="path349" /><g
           id="g351"
           transform="translate(148.3594,322.001)"><path
             d="m 0,0 h -108.361 c -16.499,0 -29.999,13.499 -29.999,30 0,16.5 13.5,30 29.999,30 h 80.535"
             style="fill:none;stroke:#000000;stroke-width:20;stroke-linecap:round;stroke-linejoin:round;stroke-miterlimit:22.926;stroke-dasharray:none;stroke-opacity:1"
             id="path353" /></g><g
           id="g355"
           transform="translate(87.999,328.3018)"><path
             d="M 0,0 V 47.398"
             style="fill:none;stroke:#000000;stroke-width:20;stroke-linecap:round;stroke-linejoin:round;stroke-miterlimit:22.926;stroke-dasharray:none;stroke-opacity:1"
             id="path357" /></g><g
           id="g359"
           transform="translate(478.0723,344.8735)"><path
             d="m 0,0 c -0.688,2.313 -1.038,4.714 -1.038,7.127 0,2.706 0.439,5.393 1.302,7.957"
             style="fill:none;stroke:#000000;stroke-width:20;stroke-linecap:round;stroke-linejoin:round;stroke-miterlimit:22.926;stroke-dasharray:none;stroke-opacity:1"
             id="path361" /></g><g
           id="g363"
           transform="translate(200.9697,76.2217)"><path
             d="M 0,0 H 0.007"
             style="fill:none;stroke:#000000;stroke-width:20;stroke-linecap:round;stroke-linejoin:round;stroke-miterlimit:22.926;stroke-dasharray:none;stroke-opacity:1"
             id="path365" /></g><g
           id="g367"
           transform="translate(205.1641,231.271)"><path
             d="M 0,0 H 0.007"
             style="fill:none;stroke:#000000;stroke-width:20;stroke-linecap:round;stroke-linejoin:round;stroke-miterlimit:2.613;stroke-dasharray:none;stroke-opacity:1"
             id="path369" /></g></g></g></g></svg>
