<?xml version="1.0" encoding="UTF-8" standalone="no"?>
<!-- Created with Inkscape (http://www.inkscape.org/) -->

<svg
   version="1.1"
   id="svg1761"
   xml:space="preserve"
   width="682.66669"
   height="682.66669"
   viewBox="0 0 682.66669 682.66669"
   xmlns="http://www.w3.org/2000/svg"
   xmlns:svg="http://www.w3.org/2000/svg"><defs
     id="defs1765"><clipPath
       clipPathUnits="userSpaceOnUse"
       id="clipPath1775"><path
         d="M 0,512 H 512 V 0 H 0 Z"
         id="path1773" /></clipPath></defs><g
     id="g1767"
     transform="matrix(1.3333333,0,0,-1.3333333,0,682.66667)"><g
       id="g1769"><g
         id="g1771"
         clip-path="url(#clipPath1775)"><g
           id="g1777"
           transform="translate(25.0591,25.0591)"><path
             d="m 0,0 v 0 c -13.412,13.412 -13.412,35.157 0,48.568 l 87.865,87.866 c 13.412,13.412 35.157,13.412 48.569,0 v 0 c 13.412,-13.412 13.412,-35.157 0,-48.569 L 48.568,0 C 35.157,-13.412 13.412,-13.412 0,0 Z"
             style="fill:none;stroke:#000000;stroke-width:30;stroke-linecap:round;stroke-linejoin:miter;stroke-miterlimit:10;stroke-dasharray:none;stroke-opacity:1"
             id="path1779" /></g><g
           id="g1781"
           transform="translate(161.4927,161.4932)"><path
             d="M 0,0 55.345,55.344"
             style="fill:none;stroke:#000000;stroke-width:30;stroke-linecap:butt;stroke-linejoin:miter;stroke-miterlimit:10;stroke-dasharray:none;stroke-opacity:1"
             id="path1783" /></g><g
           id="g1785"
           transform="translate(448.9316,216.8374)"><path
             d="m 0,0 c 64.091,64.091 64.091,168.003 0,232.094 -64.091,64.092 -168.003,64.092 -232.094,0 C -296.186,168.003 -296.186,64.091 -232.094,0 -168.003,-64.091 -64.091,-64.091 0,0 Z"
             style="fill:none;stroke:#000000;stroke-width:30;stroke-linecap:round;stroke-linejoin:miter;stroke-miterlimit:10;stroke-dasharray:none;stroke-opacity:1"
             id="path1787" /></g><g
           id="g1789"
           transform="translate(256.8843,268.8818)"><path
             d="M 0,0 V 48.005"
             style="fill:none;stroke:#000000;stroke-width:30;stroke-linecap:round;stroke-linejoin:miter;stroke-miterlimit:10;stroke-dasharray:none;stroke-opacity:1"
             id="path1791" /></g><g
           id="g1793"
           transform="translate(306.8843,268.8818)"><path
             d="M 0,0 V 98.005"
             style="fill:none;stroke:#000000;stroke-width:30;stroke-linecap:round;stroke-linejoin:miter;stroke-miterlimit:10;stroke-dasharray:none;stroke-opacity:1"
             id="path1795" /></g><g
           id="g1797"
           transform="translate(356.8843,268.8818)"><path
             d="M 0,0 V 78.005"
             style="fill:none;stroke:#000000;stroke-width:30;stroke-linecap:round;stroke-linejoin:miter;stroke-miterlimit:10;stroke-dasharray:none;stroke-opacity:1"
             id="path1799" /></g><g
           id="g1801"
           transform="translate(406.8843,268.8818)"><path
             d="M 0,0 V 128.005"
             style="fill:none;stroke:#000000;stroke-width:30;stroke-linecap:round;stroke-linejoin:miter;stroke-miterlimit:10;stroke-dasharray:none;stroke-opacity:1"
             id="path1803" /></g></g></g></g></svg>
