<?xml version="1.0" encoding="UTF-8" standalone="no"?>
<!-- Created with Inkscape (http://www.inkscape.org/) -->

<svg
   version="1.1"
   id="svg1674"
   xml:space="preserve"
   width="682.66669"
   height="682.66669"
   viewBox="0 0 682.66669 682.66669"
   xmlns="http://www.w3.org/2000/svg"
   xmlns:svg="http://www.w3.org/2000/svg"><defs
     id="defs1678"><clipPath
       clipPathUnits="userSpaceOnUse"
       id="clipPath1688"><path
         d="M 0,512 H 512 V 0 H 0 Z"
         id="path1686" /></clipPath></defs><g
     id="g1680"
     transform="matrix(1.3333333,0,0,-1.3333333,0,682.66667)"><g
       id="g1682"><g
         id="g1684"
         clip-path="url(#clipPath1688)"><g
           id="g1690"
           transform="translate(316.25,436.591)"><path
             d="m 0,0 c 0,-33.275 -26.975,-60.25 -60.25,-60.25 -33.275,0 -60.25,26.975 -60.25,60.25 0,33.275 26.975,60.25 60.25,60.25 C -26.975,60.25 0,33.275 0,0 Z"
             style="fill:none;stroke:#000000;stroke-width:30;stroke-linecap:round;stroke-linejoin:round;stroke-miterlimit:10;stroke-dasharray:none;stroke-opacity:1"
             id="path1692" /></g><g
           id="g1694"
           transform="translate(256,376.341)"><path
             d="m 0,0 c -66.55,0 -120.5,-26.975 -120.5,-60.25 v -37.393 h 241 V -60.25 C 120.5,-26.975 66.55,0 0,0 Z"
             style="fill:none;stroke:#000000;stroke-width:30;stroke-linecap:round;stroke-linejoin:round;stroke-miterlimit:10;stroke-dasharray:none;stroke-opacity:1"
             id="path1696" /></g><g
           id="g1698"
           transform="translate(256,376.341)"><path
             d="M 0,0 V -48.2"
             style="fill:none;stroke:#000000;stroke-width:30;stroke-linecap:round;stroke-linejoin:round;stroke-miterlimit:10;stroke-dasharray:none;stroke-opacity:1"
             id="path1700" /></g><g
           id="g1702"
           transform="translate(438.23,199.76)"><path
             d="m 0,0 c -6.23,-6.23 -10.09,-14.84 -10.09,-24.35 0,-19.01 15.42,-34.43 34.43,-34.43 V -184.6 H -388.8 v 125.82 c 9.51,0 18.11,3.86 24.34,10.09 6.23,6.23 10.09,14.83 10.09,24.34 0,19.02 -15.42,34.43 -34.43,34.43 V 78.94 H 24.34 V 10.08 C 14.83,10.08 6.23,6.23 0,0 Z"
             style="fill:none;stroke:#000000;stroke-width:30;stroke-linecap:round;stroke-linejoin:round;stroke-miterlimit:10;stroke-dasharray:none;stroke-opacity:1"
             id="path1704" /></g><g
           id="g1706"
           transform="translate(83.86,175.41)"><path
             d="m 0,0 c 0,-9.51 -3.86,-18.11 -10.09,-24.34 -6.23,-6.23 -14.83,-10.09 -24.34,-10.09 h -15.36 c -10.53,0 -19.07,8.54 -19.07,19.08 v 30.71 c 0,10.53 8.54,19.07 19.07,19.07 h 15.36 C -15.42,34.43 0,19.02 0,0 Z"
             style="fill:none;stroke:#000000;stroke-width:30;stroke-linecap:round;stroke-linejoin:round;stroke-miterlimit:10;stroke-dasharray:none;stroke-opacity:1"
             id="path1708" /></g><g
           id="g1710"
           transform="translate(497,190.77)"><path
             d="m 0,0 v -30.71 c 0,-10.54 -8.54,-19.08 -19.07,-19.08 h -15.36 c -19.01,0 -34.43,15.42 -34.43,34.43 0,9.51 3.86,18.12 10.09,24.35 6.23,6.23 14.83,10.08 24.34,10.08 h 15.36 C -8.54,19.07 0,10.53 0,0 Z"
             style="fill:none;stroke:#000000;stroke-width:30;stroke-linecap:round;stroke-linejoin:round;stroke-miterlimit:10;stroke-dasharray:none;stroke-opacity:1"
             id="path1712" /></g><path
           d="m 376.5,146.929 h -241 v 60.25 h 241 z"
           style="fill:none;stroke:#000000;stroke-width:30;stroke-linecap:round;stroke-linejoin:round;stroke-miterlimit:10;stroke-dasharray:none;stroke-opacity:1"
           id="path1714" /><g
           id="g1716"
           transform="translate(135.5,86.6786)"><path
             d="M 0,0 H 241"
             style="fill:none;stroke:#000000;stroke-width:30;stroke-linecap:round;stroke-linejoin:round;stroke-miterlimit:10;stroke-dasharray:none;stroke-opacity:1"
             id="path1718" /></g></g></g></g></svg>
