<svg id="Capa_1" enable-background="new 0 0 512 512" height="512" viewBox="0 0 512 512" width="512" xmlns="http://www.w3.org/2000/svg"><g><g><g><g><path d="m451.95 0h-391.9c-33.11 0-60.05 26.94-60.05 60.05v59.95h512v-59.95c0-33.11-26.94-60.05-60.05-60.05zm-386.95 75c-8.28 0-15-6.72-15-15s6.72-15 15-15 15 6.72 15 15-6.72 15-15 15zm60 0c-8.28 0-15-6.72-15-15s6.72-15 15-15 15 6.72 15 15-6.72 15-15 15zm322 0h-242c-8.28 0-15-6.72-15-15s6.72-15 15-15h242c8.28 0 15 6.72 15 15s-6.72 15-15 15z"/></g></g><circle cx="204.93" cy="422" r="15"/><circle cx="345.93" cy="422" r="15"/><path d="m369.48 285.91c4.06 5.55 5.19 12.5 3.1 19.05l-22.99 72.02h-153.9l-18.48-76.29v-.04l-5.62-23.49h180.68c6.88 0 13.15 3.19 17.21 8.75z"/><path d="m0 150v301.95c0 33.11 26.94 60.05 60.05 60.05h391.9c33.11 0 60.05-26.94 60.05-60.05v-301.95zm401.15 164.09-24.09 75.47c8.54 8.19 13.87 19.7 13.87 32.44 0 24.81-20.19 45-45 45s-45-20.19-45-45c0-5.27.92-10.32 2.59-15.02h-56.18c1.67 4.7 2.59 9.75 2.59 15.02 0 24.81-20.19 45-45 45s-45-20.19-45-45c0-10.23 3.43-19.66 9.2-27.23l-40.87-169.77h-44.87c-8.29 0-15-6.72-15-15s6.71-15 15-15h56.71c6.781-.065 13.073 4.902 14.59 11.51l9.72 40.65h187.86c16.56 0 31.67 7.67 41.44 21.05 9.77 13.37 12.48 30.1 7.44 45.88z"/></g></g></svg>