<svg height="512pt" viewBox="0 -16 512 512" width="512pt" xmlns="http://www.w3.org/2000/svg"><path d="m311.167969 318.519531h50.332031v51.015625h-50.332031zm0 0"/><path d="m400.601562 255.410156c-14.382812 8.71875-31 13.457032-48.199218 13.457032-17.203125 0-33.816406-4.738282-48.203125-13.457032-14.382813 8.71875-31 13.457032-48.199219 13.457032s-33.816406-4.738282-48.199219-13.457032c-14.382812 8.71875-30.996093 13.457032-48.199219 13.457032-17.199218 0-33.816406-4.738282-48.199218-13.457032-14.386719 8.71875-31 13.457032-48.203125 13.457032-7.945313 0-15.660157-1.003907-23.027344-2.882813v158.714844c0 30.417969 24.746094 55.167969 55.164063 55.167969h25.167968v-135.5c0-8.285157 6.714844-15 15-15h80.332032c8.285156 0 15 6.714843 15 15v135.5h185.835937c30.417969 0 55.164063-24.75 55.164063-55.167969v-158.714844c-7.371094 1.882813-15.089844 2.882813-23.035157 2.882813-17.203125 0-33.820312-4.738282-48.199219-13.457032zm-9.101562 129.125c0 8.28125-6.714844 15-15 15h-80.332031c-8.285157 0-15-6.71875-15-15v-81.015625c0-8.28125 6.714843-15 15-15h80.332031c8.285156 0 15 6.71875 15 15zm0 0"/><path d="m150.5 359.367188h50.335938v120.5h-50.335938zm0 0"/><path d="m96.398438 229.40625v-86.9375h-96.398438v33.199219c0 34.847656 28.351562 63.199219 63.199219 63.199219 12.175781 0 23.546875-3.46875 33.199219-9.460938zm0 0"/><path d="m490.324219 49.503906c-7.933594-27.761718-36.757813-49.503906-65.625-49.503906h-337.398438c-28.867187 0-57.691406 21.742188-65.625 49.503906l-17.992187 62.964844h504.628906zm0 0"/><path d="m159.601562 238.867188c12.171876 0 23.546876-3.46875 33.199219-9.460938v-86.9375h-66.398437v86.9375c9.652344 5.992188 21.023437 9.460938 33.199218 9.460938zm0 0"/><path d="m415.601562 142.46875v86.9375c9.652344 5.988281 21.023438 9.460938 33.199219 9.460938 34.847657 0 63.199219-28.351563 63.199219-63.199219v-33.199219zm0 0"/><path d="m256 238.867188c12.175781 0 23.546875-3.46875 33.199219-9.460938v-86.9375h-66.398438v86.9375c9.652344 5.992188 21.023438 9.460938 33.199219 9.460938zm0 0"/><path d="m352.398438 238.867188c12.175781 0 23.546874-3.46875 33.199218-9.460938v-86.9375h-66.398437v86.9375c9.652343 5.992188 21.027343 9.460938 33.199219 9.460938zm0 0"/></svg>