<svg id="Capa_1" enable-background="new 0 0 512 512" height="512" viewBox="0 0 512 512" width="512" xmlns="http://www.w3.org/2000/svg"><g><path d="m351.161 88.994-89.877-86.641c-3.264-3.146-8.435-3.135-11.686.024l-87.943 85.475c-5.408 5.257-1.687 14.425 5.855 14.425h46.44c1.492 0 2.702 1.21 2.702 2.702v407.021h78.659v-405.854c0-1.492 1.21-2.702 2.702-2.702h47.317c7.559-.001 11.273-9.204 5.831-14.45z"/><g><g><path d="m107.709 293.498.098 218.502h78.77v-218.507c0-6.664-5.403-12.067-12.067-12.067h-54.735c-6.666 0-12.069 5.406-12.066 12.072z"/><path d="m78.77 512v-117.444c0-6.664-5.403-12.067-12.067-12.067h-54.636c-6.664 0-12.067 5.403-12.067 12.067v104.198c0 7.316 5.93 13.246 13.246 13.246z"/></g><g><path d="m512 498.754v-104.198c0-6.664-5.403-12.067-12.067-12.067h-54.663c-6.664 0-12.067 5.403-12.067 12.067v117.444h65.551c7.316 0 13.246-5.93 13.246-13.246z"/><path d="m325.422 293.493v218.507h78.797l.073-218.503c.002-6.666-5.401-12.071-12.067-12.071h-54.736c-6.665 0-12.067 5.402-12.067 12.067z"/></g></g></g></svg>