<svg height="512pt" viewBox="0 0 512 512" width="512pt" xmlns="http://www.w3.org/2000/svg"><path d="m256 143.75 56.277344 29.589844-10.75-62.667969 45.558594-44.398437-62.945313-9.140626-28.140625-57.132812-28.140625 57.132812-62.945313 9.140626 45.558594 44.398437-10.75 62.667969zm0 0"/><path d="m446.136719 159.128906-28.140625-57.023437-28.140625 57.023437-62.914063 9.140625 45.527344 44.386719-10.75 62.679688 56.277344-29.589844 56.308594 29.589844-10.78125-62.679688 48.476562-44.386719zm0 0"/><path d="m48.476562 212.65625-10.78125 62.679688 56.308594-29.589844 56.277344 29.589844-10.75-62.679688 45.527344-44.386719-62.914063-9.140625-28.140625-57.023437-28.140625 57.023437-65.863281 9.140625zm0 0"/><path d="m331 286c0-41.351562-33.648438-75-75-75s-75 33.648438-75 75 33.648438 75 75 75 75-33.648438 75-75zm0 0"/><path d="m151 466v46h210v-46c0-57.890625-47.109375-105-105-105s-105 47.109375-105 105zm0 0"/><path d="m481 496c0-41.351562-33.648438-75-75-75-7.757812 0-15.09375 1.523438-22.136719 3.71875 4.246094 13.09375 7.136719 26.792969 7.136719 41.28125v46h90zm0 0"/><path d="m466 361c0-33.089844-26.910156-60-60-60s-60 26.910156-60 60c0 1.910156.386719 3.714844.5625 5.578125 14.792969 13.484375 26.722656 29.941406 34.386719 48.765625 7.648437 3.542969 16.082031 5.65625 25.050781 5.65625 33.089844 0 60-26.910156 60-60zm0 0"/><path d="m165.4375 366.578125c.175781-1.863281.5625-3.667969.5625-5.578125 0-33.089844-26.910156-60-60-60s-60 26.910156-60 60 26.910156 60 60 60c8.96875 0 17.402344-2.113281 25.050781-5.652344 7.664063-18.828125 19.59375-35.285156 34.386719-48.769531zm0 0"/><path d="m31 496v16h90v-46c0-14.488281 2.890625-28.1875 7.136719-41.28125-7.042969-2.195312-14.378907-3.71875-22.136719-3.71875-41.351562 0-75 33.648438-75 75zm0 0"/></svg>