<svg id="Capa_1" enable-background="new 0 0 512 512" height="512" viewBox="0 0 512 512" width="512" xmlns="http://www.w3.org/2000/svg"><g><circle cx="256" cy="60" r="60"/><path d="m181 195v46h150v-46c0-41.353-33.647-75-75-75s-75 33.647-75 75z"/><circle cx="436" cy="60" r="60"/><path d="m436 120c-41.353 0-75 33.647-75 75v46h151v-46c0-41.353-34.647-75-76-75z"/><circle cx="76" cy="60" r="60"/><path d="m151 195c0-41.353-33.647-75-75-75s-76 33.647-76 75v46h151z"/><path d="m330.713 271h-149.426c.84 34.689 4.451 67.799 10.111 95.856 20.604-3.062 42.157-4.856 64.602-4.856 22.24 0 43.881 1.727 64.592 4.893 5.666-28.067 9.278-61.189 10.121-95.893z"/><path d="m511.24 271h-150.518c-.82 34.369-4.382 69.864-10.706 101.604 40.653 9.437 76.342 24.8 103.748 44.485 32.497-40.188 54.263-91.26 57.476-146.089z"/><path d="m198.521 396.29c14.814 52.828 36.83 85.71 57.479 85.71 20.663 0 42.697-32.933 57.512-85.831-18.492-2.699-37.779-4.169-57.512-4.169-19.808 0-39.029 1.584-57.479 4.29z"/><path d="m168.878 401.736c-35.684 8.265-66.744 21.442-90.419 37.742 45.888 44.789 108.457 72.522 177.541 72.522-40.558 0-69.908-46.604-87.122-110.264z"/><path d="m343.105 401.794c-17.214 63.629-46.558 110.206-87.105 110.206 69.152 0 131.774-27.794 177.673-72.66-23.755-16.353-54.992-29.344-90.568-37.546z"/><path d="m151.278 271h-150.518c3.201 54.608 24.817 105.493 57.087 145.6 27.208-19.655 62.933-34.926 104.077-44.279-6.288-31.658-9.827-67.055-10.646-101.321z"/></g></svg>