<svg id="Capa_1" enable-background="new 0 0 512 512" height="512" viewBox="0 0 512 512" width="512" xmlns="http://www.w3.org/2000/svg"><g><path d="m326 8.787v71.213h71.213z"/><path d="m289.271 372.857h-118.271c-8.284 0-15-6.716-15-15s6.716-15 15-15h115.027c.238-13.515 2.718-26.491 7.089-38.572h-122.116c-8.284 0-15-6.716-15-15s6.716-15 15-15h138.114c21.85-29.855 57.139-49.285 96.886-49.285v-115h-95c-8.284 0-15-6.716-15-15v-95h-265c-8.284 0-15 6.716-15 15v482c0 8.284 6.716 15 15 15h360c8.284 0 15-6.716 15-15v-32c-56.58 0-104.133-39.364-116.729-92.143zm-118.271-304.286h80c8.284 0 15 6.716 15 15s-6.716 15-15 15h-80c-8.284 0-15-6.716-15-15s6.716-15 15-15zm0 68.572h150c8.284 0 15 6.716 15 15s-6.716 15-15 15h-150c-8.284 0-15-6.716-15-15s6.716-15 15-15zm0 68.571h150c8.284 0 15 6.716 15 15s-6.716 15-15 15h-150c-8.284 0-15-6.716-15-15s6.716-15 15-15zm-60 235.715h-20c-8.284 0-15-6.716-15-15s6.716-15 15-15h20c8.284 0 15 6.716 15 15s-6.716 15-15 15zm0-68.572h-20c-8.284 0-15-6.716-15-15s6.716-15 15-15h20c8.284 0 15 6.716 15 15s-6.716 15-15 15zm0-68.571h-20c-8.284 0-15-6.716-15-15s6.716-15 15-15h20c8.284 0 15 6.716 15 15s-6.716 15-15 15zm0-68.572h-20c-8.284 0-15-6.716-15-15s6.716-15 15-15h20c8.284 0 15 6.716 15 15s-6.716 15-15 15zm0-68.571h-20c-8.284 0-15-6.716-15-15s6.716-15 15-15h20c8.284 0 15 6.716 15 15s-6.716 15-15 15zm0-68.572h-20c-8.284 0-15-6.716-15-15s6.716-15 15-15h20c8.284 0 15 6.716 15 15s-6.716 15-15 15zm130 342.858h-70c-8.284 0-15-6.716-15-15s6.716-15 15-15h70c8.284 0 15 6.716 15 15s-6.716 15-15 15z"/><path d="m406 255c-49.706 0-90 40.294-90 90s40.294 90 90 90 90-40.294 90-90-40.294-90-90-90zm42.426 79.394-42.426 42.425c-5.858 5.858-15.355 5.858-21.213 0l-21.213-21.213c-5.858-5.858-5.858-15.355 0-21.213s15.355-5.858 21.213 0l10.607 10.607 31.819-31.819c5.858-5.858 15.355-5.858 21.213 0s5.858 15.355 0 21.213z"/></g></svg>