<svg id="Capa_1" enable-background="new 0 0 512 512" height="512" viewBox="0 0 512 512" width="512" xmlns="http://www.w3.org/2000/svg"><g><path d="m186.883 456.902h-108.115c-15.179 0-27.529 12.349-27.529 27.539 0 15.179 12.35 27.529 27.529 27.529h156.713c-20.109-14.36-36.799-33.209-48.598-55.068z"/><path d="m78.768 426.903h95.656c-4.45-14.739-6.83-30.348-6.83-46.508 0-2.87.08-5.72.22-8.55h-89.046c-15.179 0-27.529 12.349-27.529 27.529s12.35 27.529 27.529 27.529z"/><path d="m78.768 341.847h93.476c4.93-20.079 13.629-38.708 25.299-55.067h-118.775c-15.179 0-27.529 12.349-27.529 27.529 0 15.189 12.35 27.538 27.529 27.538z"/><path d="m78.768 256.781h146.453c24.109-20.309 54.217-33.698 87.236-37.108-3.9-10.469-13.999-17.949-25.809-17.949h-207.88c-15.179 0-27.529 12.349-27.529 27.529 0 15.178 12.35 27.528 27.529 27.528z"/><path d="m236.801 286.78c-15.329 15.129-26.969 33.978-33.449 55.067-26.979 87.774 42.674 175.668 133.934 169.882 68.797-4.2 123.474-61.497 123.474-131.334.001-114.974-139.868-176.655-223.959-93.615zm139.863 129.134c-2.71 16.129-14.469 32.479-32.868 38.538v4c0 8.836-7.636 15.683-16.069 14.959-7.78-.55-13.929-7.03-13.929-14.959v-2.25c-9.865-1.305-17.509-4.915-25.969-10.459-1.61-1.05-2.95-2.36-4-3.84-9.261-12.96 5.477-29.427 19.349-21.909h.01c7.942 4.202 7.789 7.05 25.119 6.909 4.1-.03 7.58-1.18 10.379-3.01v-.01c9.724-6.346 13.961-23.789-1.83-29.379-12.73-4.485-34.724-12.725-43.458-23.059h-.01c-17.67-20.326-7.411-56.925 20.409-65.047 0-3.852-.889-12.053 7.349-16.959 8.459-5.021 22.649-1.705 22.649 16.239 3.456.912 8.13 2.778 12.805 4.937 9.274 4.282 11.698 16.351 4.772 23.859-4.449 4.823-11.518 6.201-17.456 3.408-4.568-2.149-10.929-5.98-21.291-2.825-8.425 2.55-9.602 14.446-6.23 17.069 7.302 5.758 21.622 10.967 30.459 14.089 21.541 7.62 33.53 27.59 29.81 49.699z"/><path d="m172.554 166.302c4.84 7.23 15.469 7.23 20.309 0l60.947-77.637c5.43-8.119-.39-19.009-10.15-19.009h-18.609c-6.75 0-12.22-5.47-12.22-12.219v-45.218c0-6.75-5.47-12.219-12.209-12.219h-35.828c-6.74 0-12.21 5.47-12.21 12.219v45.218c0 6.75-5.47 12.219-12.219 12.219h-18.609c-9.76 0-15.579 10.89-10.15 19.009z"/></g></svg>